<svg xmlns="http://www.w3.org/2000/svg" viewBox="0 0 196.18 93.64"><defs><style>.cls-1{fill:#fff;}</style></defs><g id="Capa_2" data-name="Capa 2"><g id="Capa_1-2" data-name="Capa 1"><path class="cls-1" d="M41.26.09c10.74,0,21.47,0,32.21,0,17.14,0,29.43,12.12,29.43,29.26a55,55,0,0,1-1.36,13.7C98.2,55.83,87.63,63.71,74.4,63.76q-23.27.1-46.54,0c-2.26,0-3.21.51-3.73,2.88-1.86,8.4-4,16.72-6,25.09-.29,1.2-.63,1.91-2.1,1.89-4.78-.08-9.56,0-14.34,0-1.48,0-1.89-.42-1.52-1.93Q5.44,69.82,10.6,47.9c.44-1.9,1.57-1.78,2.92-1.78,19.59,0,39.18-.2,58.76.1C79,46.33,85.26,41,85.06,34c0-1.57,0-3.13,0-4.7C84.89,23.5,79,17.88,72.93,18c-19.51.25-39,.05-58.53.14-2.26,0-3.54-.47-4.33-2.76C8.54,10.91,6.75,6.57,4.93,2.25,4.16.42,4.57,0,6.47,0c11.6.06,23.19,0,34.79,0Z"/><path class="cls-1" d="M130.59.09H167A29.1,29.1,0,0,1,189.6,10.3,25.39,25.39,0,0,1,195.76,25c.79,8.25.86,16.49-3.26,24.05-4.93,9-12.92,13.55-22.92,14.6-3.88.4-7.83.11-11.75.15a8.82,8.82,0,0,0-1.33.23,5.49,5.49,0,0,0,.74,1.3Q167.82,76,178.43,86.7c1.82,1.83,3.62,3.68,5.42,5.54a7.81,7.81,0,0,1,.68.92,3.16,3.16,0,0,1-1,.38c-6.82,0-13.63.09-20.45,0a4.1,4.1,0,0,1-2.28-1.39c-7.15-7.14-14.24-14.34-21.39-21.48-7.53-7.51-15.1-15-22.64-22.49a13.57,13.57,0,0,1-1.32-1.77,17.29,17.29,0,0,1,2.25-.28q24,0,48,0c7.21,0,11.39-3.52,12.08-10.67a28.63,28.63,0,0,0-.68-9.5c-1.31-5.2-5.24-7.86-10.59-7.87-20,0-40,0-59.94,0-2,0-3-.55-3.68-2.55A25.9,25.9,0,0,0,91.47,1.65C90.9,1.29,90.4.84,89.86.44A12.71,12.71,0,0,1,92,.08q19.27,0,38.55,0Z"/></g></g></svg>