<svg xmlns="http://www.w3.org/2000/svg" viewBox="0 0 617.86 196.97"><defs><style>.cls-1{fill:#fff;}</style></defs><g id="Capa_2" data-name="Capa 2"><g id="Capa_1-2" data-name="Capa 1"><path class="cls-1" d="M617.3,163.69c.68,6,.68,6-4.82,6.06q-10.93,0-21.86.05c-3,0-3.65.71-3.64,4,0,3,.6,3.55,3.72,3.55,6.08,0,12.15-.06,18.22.05,5,.09,8.42,3,8.83,7.44.63,6.84-1.43,10.52-6.61,11.77a4.55,4.55,0,0,1-1,.18H580.81c0-1.3.09-2.48,0-3.64-.2-1.92.55-2.57,2.5-2.56,8.24.08,16.48,0,24.72,0,2.34,0,3.54-.89,3.51-3.38,0-3.27-.56-3.88-4-3.88H590.38c-6.75,0-9.73-3.22-9.72-10.54,0-6,3.4-9.15,9.77-9.13q12,0,24,0Z"/><path class="cls-1" d="M353.52,196.81c-3.55,0-7.11,0-10.66,0-5.24-.07-8.65-3.41-8.71-8.6,0-5.37,0-10.74,0-16.11,0-4.87,2.95-8.17,7.8-8.3,7.53-.21,15.08-.25,22.62-.06,5.28.13,8.32,3.34,8.45,8.62s.15,10.57,0,15.85-3.65,8.54-9.08,8.58c-3.47,0-6.94,0-10.41,0Zm0-6.22c3.3,0,6.6,0,9.9,0,2.14,0,3.2-.95,3.18-3.15q-.06-7.29,0-14.57c0-2.2-1-3.15-3.18-3.13q-10,0-20,0c-2,0-2.88.94-2.89,2.85,0,4.94,0,9.89,0,14.83,0,2.15,1,3.18,3.17,3.14C346.92,190.55,350.22,190.59,353.51,190.59Z"/><path class="cls-1" d="M412.09,196.79c-3.47,0-6.95,0-10.42,0-5.25-.06-8.56-3.16-8.66-8.34q-.17-8.44,0-16.9a7.63,7.63,0,0,1,7.59-7.74c7.63-.25,15.28-.29,22.9,0,5.07.21,7.79,3.49,7.88,8.57s.1,10.41,0,15.61-3.56,8.71-8.9,8.77C419,196.82,415.56,196.79,412.09,196.79Zm0-27v0c-3.2,0-6.41.07-9.62,0-2.18-.06-3.23.8-3.22,3,0,4.94,0,9.87,0,14.81,0,2,.89,3,3,3q9.75-.06,19.5,0c2.35,0,3.24-1.12,3.22-3.37,0-4.76-.05-9.53,0-14.29,0-2.38-1.09-3.25-3.34-3.21C418.54,169.8,415.33,169.76,412.12,169.76Z"/><path class="cls-1" d="M276.49,180.54h7.9c6.69,0,13.37-.06,20.06,0,2.11,0,3-.85,3-2.94-.23-9.2,1-7.72-7.41-7.81-6.86-.06-13.72,0-20.57,0h-3v-5.92c.74,0,1.48-.15,2.21-.15,8.68,0,17.37,0,26.05,0,6.29,0,9.06,2.75,9.05,9,0,1.82.07,3.64,0,5.46-.23,5-3.46,8.17-8.49,8.29-1.28,0-2.56,0-4.62,0,4,3.61,7.51,6.74,11.55,10.35-3.52,0-6.41.09-9.3-.06a4.08,4.08,0,0,1-2.13-1.28c-2.72-2.43-5.29-5-8.11-7.33a7.79,7.79,0,0,0-4.07-1.63,64.41,64.41,0,0,0-9.11,0c-2.46.16-3.61-.56-3.17-3.15A26.7,26.7,0,0,0,276.49,180.54Z"/><path class="cls-1" d="M109.72,196.78v-6.19h3.1c8.33,0,16.65-.06,25,0,2.45,0,3.46-.79,3.39-3.3-.14-4.77-.18-9.54,0-14.3.08-2.48-.7-3.36-3.25-3.32-8.32.13-16.65.05-25,.05h-3.07V163.9a14.79,14.79,0,0,1,1.69-.19q14.06,0,28.1,0c5.68,0,8,2.36,8,8.08q0,8.31,0,16.63c0,5.61-2.73,8.34-8.3,8.35C129.59,196.8,119.8,196.78,109.72,196.78Z"/><path class="cls-1" d="M6.47,185.57v11H0v-16.8c1.07-.05,2-.13,2.93-.13,8.41,0,16.82-.07,25.24,0,2.41,0,3.4-.56,3.35-3.19-.14-6.85,0-6.83-6.87-6.79s-13.7.05-20.56,0c-1.35,0-2.71-.23-4.13-.37v-5.71H2.91l26.54,0c6,0,8.35,2.34,8.34,8.32,0,2.17,0,4.34,0,6.5,0,4.32-2.55,6.87-7,6.91-7.45.08-14.91.05-22.37.07C7.88,185.46,7.37,185.52,6.47,185.57Z"/><path class="cls-1" d="M455.88,196.69h-6.34V164h6.27v14.27c3.41-2.37,6.39-4.41,9.32-6.49,1.91-1.36,3.76-2.8,5.64-4.2,5.74-4.31,6.28-4.45,14.12-3.49l-20.74,15.45,21.28,17.08c-5.4.48-9.88.62-13.88-3.34s-8.62-7-13-10.41c-.72-.56-1.49-1.05-2.68-1.88Z"/><path class="cls-1" d="M92.59,196.35c-5.18,1.7-7.87-.31-10.06-4.72-3.27-6.56-7.29-12.75-11.22-19.5-2.85,4.88-5.5,9.42-8.16,14-1.1,1.86-2.54,3.6-3.28,5.59-1.83,4.89-5.22,6.18-10.25,4.75,1.68-2.87,3.4-5.81,5.13-8.74Q61,177,67.3,166.43c2.19-3.71,5.65-3.8,7.83-.11q7.8,13.19,15.5,26.42C91.32,193.91,91.93,195.13,92.59,196.35Z"/><path class="cls-1" d="M224.38,163.9h6.34v7c0,5.64.1,11.28,0,16.91-.06,2.21.7,2.8,2.83,2.77,7.29-.11,14.58,0,21.87,0h3v6c-.89.06-1.73.15-2.57.15q-12,0-24,0c-5.34,0-7.55-2.06-7.61-7.29-.07-7.8,0-15.6,0-23.41C224.21,165.42,224.31,164.74,224.38,163.9Z"/><path class="cls-1" d="M508,196.66h-6.26V163.94H508Z"/><path class="cls-1" d="M203.41,163.87v5.67H168v-5.67Z"/><path class="cls-1" d="M526.05,163.84H561.2v5.69H526.05Z"/><path class="cls-1" d="M168.21,196.59c-.11-.15-.19-.21-.2-.28-.81-5.62-.74-5.71,4.79-5.72l27.55,0h3v6Z"/><path class="cls-1" d="M561.23,190.75v5.88H526v-5.88Z"/><path class="cls-1" d="M203.38,177.33v5.76H168.21a2.4,2.4,0,0,1-.32-.7c-.46-5-.46-5,4.6-5h30.89Z"/><path class="cls-1" d="M561.23,183.17h-35c-.15-.19-.33-.31-.34-.45-.63-5.36-.62-5.39,4.71-5.4,9,0,18.05,0,27.08,0,3.7,0,3.7,0,3.62,3.66C561.34,181.62,561.28,182.22,561.23,183.17Z"/><g id="Capa_2-2" data-name="Capa 2"><g id="Capa_1-2-2" data-name="Capa 1-2"><path class="cls-1" d="M260.33.09h32.21C309.68.09,322,12.21,322,29.35a55.33,55.33,0,0,1-1.36,13.7c-3.34,12.78-13.91,20.66-27.14,20.71q-23.27.1-46.54,0c-2.26,0-3.21.51-3.73,2.88-1.86,8.4-4,16.72-6,25.09-.29,1.2-.63,1.91-2.1,1.89-4.78-.08-9.56,0-14.34,0-1.48,0-1.89-.42-1.52-1.93q5.26-21.87,10.43-43.79c.44-1.9,1.57-1.78,2.92-1.78,19.59,0,39.18-.2,58.76.1,6.72.11,13-5.22,12.78-12.22V29.3C304,23.5,298.07,17.88,292,18c-19.51.25-39,.05-58.53.14-2.26,0-3.54-.47-4.33-2.76-1.53-4.47-3.32-8.81-5.14-13.13C223.23.42,223.64,0,225.54,0c11.6.06,23.19,0,34.79,0Z"/><path class="cls-1" d="M349.66.09h36.41a29.11,29.11,0,0,1,22.6,10.21A25.37,25.37,0,0,1,414.83,25c.79,8.25.86,16.49-3.26,24-4.93,9-12.92,13.55-22.92,14.6-3.88.4-7.83.11-11.75.15a8.6,8.6,0,0,0-1.33.23,5.08,5.08,0,0,0,.74,1.3L397.5,86.7c1.82,1.83,3.62,3.68,5.42,5.54a8.73,8.73,0,0,1,.68.92,3.28,3.28,0,0,1-1,.38c-6.82,0-13.63.09-20.45,0a4.12,4.12,0,0,1-2.28-1.39c-7.15-7.14-14.24-14.34-21.39-21.48q-11.3-11.27-22.64-22.49a13.34,13.34,0,0,1-1.32-1.77,16.87,16.87,0,0,1,2.25-.28h48c7.21,0,11.39-3.52,12.08-10.67a28.93,28.93,0,0,0-.68-9.5c-1.31-5.2-5.24-7.86-10.59-7.87H325.64c-2,0-3-.55-3.68-2.55A25.93,25.93,0,0,0,310.54,1.65c-.57-.36-1.07-.81-1.61-1.21a12.93,12.93,0,0,1,2.14-.36h38.59Z"/></g></g></g></g></svg>